<svg width="358" height="73" viewBox="0 0 358 73" fill="none" xmlns="http://www.w3.org/2000/svg">
<path d="M4.808 22.08L4.904 31.776H5.096C6.632 28.384 8.584 25.76 10.952 23.904C13.32 22.048 15.912 21.12 18.728 21.12C25.64 21.12 30.152 24.608 32.264 31.584H32.456C33.864 28.32 35.848 25.76 38.408 23.904C41.032 22.048 43.976 21.12 47.24 21.12C52.232 21.12 55.912 22.656 58.28 25.728C60.712 28.8 61.928 33.664 61.928 40.32V72H57.512V41.28C57.512 35.328 56.648 31.136 54.92 28.704C53.192 26.208 50.344 24.96 46.376 24.96C42.856 24.96 39.816 26.624 37.256 29.952C34.696 33.216 33.416 37.312 33.416 42.24V72H29V41.28C29 35.328 28.136 31.136 26.408 28.704C24.744 26.208 21.928 24.96 17.96 24.96C14.76 24.96 11.784 26.912 9.032 30.816C6.344 34.656 5 39.328 5 44.832V72H0.488V22.08H4.808ZM80.7455 10.56V-5.72205e-06H85.4495V10.56H80.7455ZM80.7455 72V22.08H85.4495V72H80.7455ZM107.183 72V-5.72205e-06H111.887V72H107.183ZM132.328 48.672C132.392 55.072 134.152 60.096 137.608 63.744C141.128 67.392 145.8 69.216 151.624 69.216C156.936 69.216 161.96 67.872 166.696 65.184L168.136 68.736C162.952 71.552 157.352 72.96 151.336 72.96C144.168 72.96 138.44 70.656 134.152 66.048C129.928 61.376 127.816 55.04 127.816 47.04C127.816 38.976 129.832 32.64 133.864 28.032C137.896 23.424 143.4 21.12 150.376 21.12C157.032 21.12 162.184 23.328 165.832 27.744C169.48 32.16 171.304 38.432 171.304 46.56V48.672H132.328ZM132.424 44.832H166.888C166.76 38.368 165.256 33.44 162.376 30.048C159.56 26.592 155.56 24.864 150.376 24.864C144.872 24.864 140.552 26.624 137.416 30.144C134.28 33.6 132.616 38.496 132.424 44.832ZM187.714 72V-5.72205e-06H192.418V72H187.714ZM229.467 21.12C236.123 21.12 240.859 22.56 243.675 25.44C246.491 28.256 247.899 33.12 247.899 40.032V58.56C247.899 63.04 248.379 67.52 249.339 72H244.923C244.347 69.056 243.995 65.76 243.867 62.112H243.675C241.947 65.44 239.419 68.096 236.091 70.08C232.827 72 229.083 72.96 224.859 72.96C220.123 72.96 216.347 71.68 213.531 69.12C210.715 66.496 209.307 62.976 209.307 58.56C209.307 52.928 211.771 48.544 216.699 45.408C221.691 42.208 228.763 40.608 237.915 40.608H243.387V40.128C243.387 34.432 242.363 30.496 240.315 28.32C238.331 26.08 234.715 24.96 229.467 24.96C223.259 24.96 217.659 26.432 212.667 29.376L211.515 25.728C216.891 22.656 222.875 21.12 229.467 21.12ZM213.723 58.368C213.723 61.696 214.779 64.352 216.891 66.336C219.067 68.32 221.979 69.312 225.627 69.312C230.427 69.312 234.587 67.552 238.107 64.032C241.627 60.448 243.387 56 243.387 50.688V44.256H237.915C230.171 44.256 224.187 45.504 219.963 48C215.803 50.496 213.723 53.952 213.723 58.368ZM284.291 25.056C280.067 25.056 276.259 27.072 272.867 31.104C269.539 35.136 267.875 39.904 267.875 45.408V72H263.363V22.08H267.683L267.779 32.64H267.971C269.699 29.12 272.099 26.336 275.171 24.288C278.307 22.176 281.731 21.12 285.443 21.12C291.267 21.12 295.555 22.816 298.307 26.208C301.059 29.6 302.435 35.04 302.435 42.528V72H298.019V42.912C298.019 36.384 296.963 31.776 294.851 29.088C292.803 26.4 289.283 25.056 284.291 25.056ZM318.046 48.672C318.11 55.072 319.87 60.096 323.326 63.744C326.846 67.392 331.518 69.216 337.342 69.216C342.654 69.216 347.678 67.872 352.414 65.184L353.854 68.736C348.67 71.552 343.07 72.96 337.054 72.96C329.886 72.96 324.158 70.656 319.87 66.048C315.646 61.376 313.534 55.04 313.534 47.04C313.534 38.976 315.55 32.64 319.582 28.032C323.614 23.424 329.118 21.12 336.094 21.12C342.75 21.12 347.902 23.328 351.55 27.744C355.198 32.16 357.022 38.432 357.022 46.56V48.672H318.046ZM318.142 44.832H352.606C352.478 38.368 350.974 33.44 348.094 30.048C345.278 26.592 341.278 24.864 336.094 24.864C330.59 24.864 326.27 26.624 323.134 30.144C319.998 33.6 318.334 38.496 318.142 44.832Z" fill="#558783"/>
</svg>
